<svg width="322" height="312" viewBox="0 0 322 312" fill="none" xmlns="http://www.w3.org/2000/svg">
<path fill-rule="evenodd" clip-rule="evenodd" d="M265.806 275.709C271.284 275.519 269.08 268.639 268.687 266.112C264.35 256.884 265.37 246.815 263.664 237.142C262.601 228.112 261.236 219.111 260.087 210.088C257.832 191.772 241.633 154.486 223.148 148.489C220.819 141.153 211.202 134.305 199.033 134.305C190.734 127.251 180.744 122.287 167.931 123.289C162.636 123.462 157.501 127.494 152.428 128.273C149.587 128.554 124.377 127.83 119.327 129.984C115.809 131.28 112.634 133.677 113.668 136.728C115.319 140.424 110.19 136.425 99.4918 140.37C77.6765 149.777 90.7124 162.362 91.2901 162.752C77.6765 176.352 65.7776 187.386 60.2721 204.009C56.704 216.35 57.1057 229.091 54.1161 241.495C53.0606 245.797 51.4412 249.951 49.6889 254.128C47.7898 259.594 46.8664 273.219 45.8196 273.34C43.9128 273.68 46.9216 276.491 48.942 276.494C104.959 283.165 161.858 276.77 218.176 275.725C234.047 275.329 249.935 275.238 265.806 275.709Z" fill="#33B384"/>
<path fill-rule="evenodd" clip-rule="evenodd" d="M180.903 163.953C180.929 163.769 181.275 163.769 181.302 163.953L181.697 166.694C182.179 170.042 182.642 173.384 182.978 176.747C183.396 180.941 183.676 185.135 183.811 189.339C184.282 203.979 184.375 218.628 184.415 233.272C187.173 233.135 189.932 233.003 192.692 232.875C194.564 232.788 196.437 232.705 198.31 232.623L203.085 232.415V232.415L205.051 232.329C206.38 232.27 207.889 232.029 208.818 232.874C209.19 233.213 209.376 233.652 209.03 234.054C208.23 234.98 207.002 234.948 205.613 234.988C204.302 235.026 202.991 235.063 201.681 235.099C198.872 235.178 196.063 235.252 193.254 235.308C190.305 235.368 187.358 235.416 184.411 235.452C184.381 241.634 184.025 247.809 183.64 253.984L183.465 256.763C182.994 264.279 182.487 271.8 181.767 279.306C181.707 279.92 180.497 279.919 180.438 279.306C179.627 270.854 179.092 262.383 178.561 253.92C178.176 247.784 177.952 241.645 177.846 235.507C177.456 235.508 177.067 235.512 176.677 235.513C165.615 235.548 154.555 235.583 143.493 235.508C143.512 235.524 143.53 235.539 143.542 235.56C144.342 236.917 144.419 238.649 144.399 240.105C144.377 241.775 144.064 243.425 143.528 245.049C141.608 250.867 136.658 256.078 131.019 260.387L130.835 260.527C129.505 261.536 127.979 262.55 127.163 263.835C126.329 265.147 126.039 266.682 125.627 268.093L125.579 268.255L123.97 273.592C123.459 275.288 123.314 277.76 121.444 278.983C119.701 280.125 117.391 279.529 116.57 278.059C115.929 276.912 116.567 275.653 116.947 274.506L119.921 265.531C120.409 264.067 120.943 262.594 121.998 261.279C123.078 259.933 124.662 258.956 126.278 257.957C129.337 256.066 132.146 253.9 134.522 251.556C136.897 249.212 138.926 246.629 140.349 243.912C141.062 242.552 141.646 241.139 142.049 239.715C142.432 238.363 142.428 236.963 142.838 235.626C142.866 235.534 142.975 235.471 143.099 235.443C143.069 235.383 143.115 235.302 143.231 235.297L152.278 234.88C160.32 234.507 168.361 234.125 176.396 233.689L177.816 233.615V233.615C177.706 225.424 177.799 217.232 178.005 209.038C178.194 201.524 178.198 194.008 178.509 186.495C178.664 182.767 178.998 179.047 179.369 175.326C179.749 171.52 180.357 167.747 180.903 163.953ZM95.9555 207.52C95.8591 207.103 96.5901 206.844 96.9271 207.226C100.78 211.586 102.637 216.321 103.42 221.424C104.111 225.926 103.908 230.494 103.563 235.009C103.196 239.824 102.767 244.639 102.334 249.451L101.668 256.832V256.832L99.9972 275.334C99.8776 276.657 99.4592 277.861 97.8722 278.476C97.6712 278.596 97.4617 278.704 97.2177 278.798C96.3602 279.127 95.223 278.961 94.7273 278.329L94.926 278.423C95.0992 278.501 94.9048 278.392 94.3426 278.095L93.8656 277.652V277.652C93.5189 277.278 93.2975 276.91 93.2085 276.466C93.0702 275.775 93.2494 275.017 93.3123 274.322L94.4075 262.19V262.19C95.2593 252.758 96.2539 243.329 97.0037 233.892C97.3529 229.494 97.5975 225.092 97.432 220.686C97.267 216.304 96.956 211.849 95.9555 207.52ZM129.283 126.303L129.497 126.277C137.148 125.365 145.469 125.536 152.462 128.184C152.52 128.206 152.493 128.275 152.428 128.273L150.177 128.208C143.052 128.008 135.948 127.889 128.942 129.091L128.225 129.215C125.701 129.657 123.067 130.198 121.04 131.395C119.103 132.539 118.138 134.303 117.211 135.927L117.087 136.142C116.146 137.746 114.955 139.267 112.892 140.27C110.221 141.569 107.008 141.41 103.944 141.587C98.5509 141.898 94.1412 144.705 91.9473 148.139C90.6188 150.219 90.0522 152.55 89.9399 154.824C89.8824 155.982 89.8741 157.185 90.089 158.335C90.1576 158.703 90.7908 160.043 91.1137 160.011C91.8311 159.939 92.487 160.208 92.7106 160.62C94.4828 159.39 96.3059 158.196 98.1878 157.046C102.879 154.177 107.931 151.578 113.252 149.344C117.313 147.639 121.597 145.949 126.032 144.672C125.681 144.667 125.334 144.717 124.999 144.842C124.852 144.897 124.706 144.765 124.822 144.678C126.219 143.622 127.893 143.472 129.58 143.753C129.94 143.671 130.3 143.592 130.662 143.516C130.842 143.479 130.931 143.657 130.784 143.725L130.37 143.915V143.915C132.21 144.358 134.017 145.228 135.448 145.915C139.557 147.887 143.175 150.298 146.841 152.663L147.508 153.092C150.735 155.161 154.045 157.172 157.712 158.832C159.632 159.701 161.648 160.504 163.763 161.102C165.576 161.615 168.53 161.938 169.379 163.315C170.134 163.973 169.819 164.814 168.935 165.257C167.443 166.436 164.459 165.674 162.682 165.183C160.54 164.592 158.464 163.88 156.484 163.046C152.641 161.426 149.097 159.412 145.796 157.269C142.349 155.031 139.097 152.654 135.743 150.346C134.29 149.345 132.871 148.322 131.416 147.323L130.685 146.826C129.942 146.326 128.884 145.547 127.753 145.075C125.622 145.988 123.458 146.863 121.346 147.799C118.398 149.106 115.536 150.508 112.719 151.955C107.295 154.741 102.156 157.862 97.3845 161.207C88.6338 167.342 81.1784 174.347 74.6656 181.765L74.171 182.33C70.4701 186.576 66.9702 190.958 64.4886 195.649C61.7581 200.812 60.4301 206.24 59.7087 211.72C58.9928 217.161 58.7513 222.629 57.9511 228.064C57.1305 233.639 55.5137 239.091 53.6746 244.532L53.236 245.822C51.572 250.695 49.8545 255.568 48.9991 260.557C48.5425 263.221 48.2678 265.922 48.3299 268.608C48.3923 271.31 48.9835 273.952 49.4606 276.625C49.6434 277.649 48.2398 278.504 46.9838 278.64C45.5393 278.796 44.2984 278.134 43.8494 277.17C42.4497 274.167 42.1955 270.847 42.2394 267.695C42.2836 264.494 42.8525 261.315 43.653 258.17C45.2272 251.983 47.6567 245.924 49.689 239.812C51.4802 234.424 52.6823 229.027 53.3303 223.508C54.0029 217.781 54.4057 212.036 55.6327 206.351C56.8439 200.739 59.1229 195.378 62.5597 190.26C65.689 185.601 69.5898 181.215 73.6795 176.964C78.6458 171.802 84.1003 166.89 90.1973 162.415C89.6497 162.398 89.0873 162.271 88.5708 162.039C86.9909 161.332 86.255 159.948 86.0289 158.684C85.4994 155.727 85.6272 152.64 86.6862 149.75C88.3945 145.087 92.8283 140.943 99.2541 139.263C100.908 138.83 102.666 138.672 104.419 138.641C106.082 138.611 107.899 138.767 109.504 138.388C112.059 137.785 113.153 135.625 114.113 133.988L114.157 133.912C115.387 131.826 116.863 130.037 119.527 128.734C122.369 127.344 125.93 126.711 129.283 126.303V126.303ZM201.986 134.556C204.286 133.983 207.161 134.503 209.409 135.003C211.914 135.561 214.229 136.588 216.214 137.807C218.308 139.094 220.038 140.682 221.261 142.456L221.378 142.627C222.494 144.273 223.766 146.532 223.203 148.341C223.187 148.392 223.168 148.441 223.147 148.489C227.71 150.102 231.923 152.121 235.592 154.681C239.864 157.662 243.481 161.054 246.543 164.718C258.701 179.271 260.841 196.75 262.277 213.347L262.635 217.555C263.415 226.642 264.327 235.708 266.697 244.669L266.87 245.316C269.404 254.699 273.031 264.154 272.663 273.779C272.553 276.663 266.617 276.643 266.445 273.779C265.797 262.998 262.293 252.588 259.92 241.976C255.745 223.304 257.837 204.055 251.922 185.571C249.6 178.317 246.004 171.281 240.869 164.806C238.332 161.607 235.43 158.516 232.03 155.756C229.105 153.382 226.065 151.097 222.647 149.101C221.555 149.886 219.372 149.486 218.802 148.341C218.41 147.554 218.525 146.633 218.273 145.809C218.04 145.044 217.718 144.285 217.29 143.565C216.435 142.129 215.181 140.75 213.734 139.588C212.17 138.332 210.373 137.288 208.362 136.427C206.337 135.559 204.122 135.3 201.986 134.666C201.914 134.645 201.908 134.575 201.986 134.556ZM210.92 234.342C210.923 234.266 211.048 234.23 211.124 234.281C211.931 234.813 212.418 235.578 213.011 236.233C213.695 236.988 214.414 237.728 215.167 238.449C216.677 239.894 218.357 241.255 220.051 242.588C221.627 243.829 223.306 245.017 225.048 246.136C226.935 247.35 229.05 248.433 230.764 249.776C234.342 252.58 234.92 256.428 235.675 260.041L235.758 260.432C236.218 262.576 236.63 264.726 237.002 266.879C237.183 267.927 237.363 268.975 237.511 270.025L237.556 270.358C237.687 271.386 237.723 272.428 236.901 273.327C236.02 274.287 234.02 274.624 232.83 273.703C230.786 272.12 231.169 269.309 230.903 267.272C230.684 265.589 230.434 263.907 230.155 262.228L230.014 261.388C229.685 259.478 229.418 257.53 228.809 255.653C228.273 254 227.25 252.752 225.573 251.555C223.883 250.348 222.127 249.222 220.567 247.923C218.912 246.545 217.42 245.068 216.075 243.526C214.925 242.207 214.003 240.772 213.159 239.338L213.019 239.1C212.202 237.702 210.856 235.882 210.92 234.342ZM240.431 174.293C240.448 174.098 240.85 174.095 240.856 174.293C240.906 175.97 240.955 177.647 241.004 179.325C241.394 192.839 241.153 206.385 243.042 219.853C243.932 226.203 245.572 232.46 247.47 238.691C248.441 241.879 249.46 245.059 250.428 248.248C251.371 251.356 252.383 254.478 253.131 257.615C253.866 260.697 254.525 263.804 254.821 266.926L254.857 267.333C254.984 268.846 255.592 271.07 254.432 272.411C253.175 273.863 250.769 273.889 249.422 272.503C248.158 271.201 248.472 268.886 248.249 267.333C248.022 265.751 247.782 264.168 247.509 262.59C246.977 259.511 246.276 256.439 245.547 253.382C244.028 247.014 241.826 240.726 240.2 234.369C238.534 227.854 237.35 221.293 237.3 214.66C237.25 207.971 238.237 201.295 238.734 194.62C239.24 187.841 239.815 181.067 240.431 174.293ZM151.517 132.259C152.023 131.037 153.806 130.274 155.546 130.617C157.141 130.931 158.457 132.321 157.834 133.51C157.153 134.807 155.965 135.913 154.962 137.092C154.037 138.181 152.686 139.039 151.743 140.109L152.782 140.914C153.302 141.315 153.824 141.714 154.351 142.106L156.163 143.454C157.575 144.502 158.996 145.544 160.456 146.555C164.751 149.53 169.114 152.406 173.924 154.954C175.019 155.533 176.122 156.11 177.257 156.65L177.679 156.851C178.458 157.217 179.326 157.576 180.266 157.514C182.551 157.364 184.615 155.622 186.185 154.537L186.267 154.481C190.157 151.823 193.76 148.917 196.909 145.793C197.608 145.099 198.285 144.393 198.945 143.678C197.422 142.401 197.786 139.908 197.702 138.359C197.643 137.27 197.638 136.181 197.63 135.091L197.626 134.871C197.607 134.166 197.563 133.489 198.2 132.909C198.238 132.875 198.314 132.876 198.362 132.894C199.235 133.223 199.504 133.773 199.877 134.39L199.916 134.454C200.369 135.195 200.803 135.942 201.243 136.687C201.703 137.467 202.124 138.258 202.552 139.047C202.751 139.415 202.941 139.783 203.126 140.154C203.24 140.391 203.357 140.626 203.477 140.861L203.505 140.879C203.664 140.976 203.799 141.078 203.914 141.183C204.402 141.358 204.789 141.677 204.971 142.146C205.366 143.166 204.548 143.997 203.818 144.807C200.853 148.096 197.473 151.23 193.716 154.073C191.85 155.485 189.887 156.834 187.843 158.114L187.486 158.336C185.65 159.469 183.657 160.542 181.205 160.807C178.336 161.117 176.001 160.092 173.804 158.912L173.585 158.793C171.503 157.662 169.463 156.49 167.486 155.265C163.456 152.766 159.621 150.084 156.219 147.141C152.908 144.278 149.637 141.077 147.596 137.632C147.472 137.422 147.799 137.203 148.055 137.378C149.052 138.059 150.011 138.777 150.958 139.505C150.985 138.434 150.709 137.354 150.862 136.277C151.049 134.967 150.995 133.52 151.517 132.259Z" fill="black"/>
<path fill-rule="evenodd" clip-rule="evenodd" d="M219.409 82.2679C216.844 74.5028 211.235 67.2765 202.256 61.4364C175.235 42.2552 125.614 52.6664 125.838 81.5711C124.869 84.9471 124.476 88.4184 124.797 91.8614C124.929 93.3304 125.815 95.3805 124.625 96.7026C121.942 99.176 120.382 100.999 121.295 104.289C122.058 107.162 124.781 109.197 128.456 110.279C130.66 110.733 132.751 111.722 133.567 113.23C138.473 119.678 142.107 125.042 149.84 129.437C151.836 130.568 172.302 137.354 179.046 137.354C198.789 137.354 223.672 132.219 224.085 116.385C224.156 112.907 223.306 109.389 222.773 105.939C221.475 98.0647 221.933 89.9057 219.409 82.2679Z" fill="white"/>
<path fill-rule="evenodd" clip-rule="evenodd" d="M218.965 78.3841C218.971 78.288 219.163 78.2665 219.2 78.3613C219.934 80.2307 220.35 82.135 220.924 84.0335C221.476 85.8621 221.998 87.6961 222.433 89.5408C223.252 93.0223 223.943 96.5129 224.585 100.013L224.744 100.888C225.861 107.046 227.704 113.461 226.092 119.655C224.717 124.94 220.105 129.2 214.161 132.323C208.533 135.28 201.709 137.178 194.934 138.257C187.663 139.415 179.044 139.76 173.127 135.932C170.759 134.399 173.987 131.357 176.557 132.74C182.59 135.988 190.266 135.031 197.074 133.738L197.28 133.699C203.255 132.556 209.27 130.824 214.014 127.902C219.259 124.671 221.852 120.187 222.152 115.269C222.32 112.506 221.961 109.746 221.574 106.999L221.531 106.694C221.087 103.553 220.621 100.413 220.191 97.271C219.799 94.4055 219.46 91.5234 219.281 88.6451L219.198 87.1934C219.024 84.2665 218.79 81.2969 218.965 78.3841ZM148.204 54.0648C158.022 50.3946 169.306 49.0811 180.232 50.3128C190.736 51.4969 200.376 55.3887 207.582 60.9691C211.1 63.6936 214.222 66.8452 216.218 70.2881C217.209 71.9986 217.985 73.7828 218.398 75.6154C218.611 76.5575 218.82 77.5336 218.86 78.4887C218.897 79.373 218.535 80.2023 218.578 81.1013C218.584 81.2419 218.284 81.269 218.239 81.1343C217.897 80.1319 217.075 79.374 216.559 78.4219C216.174 77.711 215.736 77.017 215.291 76.3251L214.908 75.7322C213.798 74.0089 212.47 72.3565 211.157 70.7101C208.513 67.3939 205.12 64.3801 201.147 61.8371C194.172 57.3722 185.223 54.4901 175.883 53.9711C166.188 53.4322 156.356 55.0913 148.077 58.7665C139.798 62.4415 133.538 68.1544 130.288 74.7321C128.649 78.0513 127.743 81.5098 127.532 85.0262C127.426 86.8062 127.525 88.6011 127.699 90.3777L127.785 91.2248C127.886 92.2408 127.956 93.2528 127.744 94.2442C129.238 93.9098 130.803 93.7712 132.374 93.9367C134.708 94.1825 136.102 94.8696 137.15 96.3671C137.204 96.4453 137.095 96.5234 136.986 96.4845C135.629 95.9981 133.432 96.2542 131.995 96.5092C130.499 96.7746 129.151 97.2362 127.88 97.8602C125.528 99.0139 123.684 100.802 123.232 102.853C122.795 104.835 123.928 106.841 125.831 108.261C126.81 108.993 127.981 109.625 129.292 110.019C130.883 110.497 132.458 110.483 133.866 111.272C134.736 111.761 134.526 112.596 133.935 113.138C136.905 115.476 139.539 118.034 142.508 120.382C143.885 121.47 145.25 122.559 146.569 123.682L147.061 124.105C148.378 125.246 150.473 126.451 151.075 127.886C151.45 128.779 150.118 129.947 148.772 129.54C146.707 128.916 145.233 127.292 143.838 126.046L143.747 125.965C142.284 124.674 140.985 123.312 139.797 121.884L139.406 121.413C137.259 118.82 135.13 116.13 133.76 113.281C133.67 113.348 133.574 113.409 133.473 113.46C131.5 114.467 128.632 113.693 126.662 113.039C124.802 112.422 123.097 111.493 121.768 110.373C118.877 107.939 117.545 104.786 118.51 101.626C119.328 98.9494 121.911 96.3459 125.299 94.9921C123.735 93.6997 123.088 91.9576 122.657 90.2543C122.107 88.0801 121.997 85.8519 122.147 83.6472C122.445 79.2558 124.019 74.927 126.452 70.9058C130.805 63.7107 138.501 57.6921 148.204 54.0648ZM127.54 102.078C129.601 101.801 131.521 101.734 133.508 102.36C135.664 103.039 137.182 104.161 138.592 105.476C140.197 106.971 136.084 108.604 135.047 106.619L135.016 106.558C134.739 105.97 134.241 105.402 133.611 104.879C133.422 105.087 133.169 105.271 132.872 105.375C132.512 105.502 131.963 105.414 131.877 105.085C131.781 104.718 131.887 104.275 132.181 103.965L132.221 103.922V103.922C130.792 103.096 129.072 102.493 127.54 102.299C127.387 102.279 127.388 102.098 127.54 102.078Z" fill="black"/>
<path fill-rule="evenodd" clip-rule="evenodd" d="M192.062 123.523C190.157 122.965 188.457 122.034 187.214 120.845C186.782 120.431 186.67 119.995 186.76 119.595C186.862 119.146 187.232 118.739 187.737 118.467C188.243 118.193 188.876 118.058 189.488 118.127C190.02 118.186 190.549 118.395 190.968 118.829L191.056 118.916C191.795 119.634 192.758 120.223 193.855 120.602C194.912 120.968 196.095 121.139 197.319 121.04C199.65 120.85 201.257 119.945 202.965 118.716C203.176 118.561 203.388 118.401 203.601 118.238C203.735 118.091 203.922 117.996 204.129 117.946C204.359 117.891 204.619 117.894 204.857 117.954C205.087 118.011 205.292 118.121 205.43 118.266C205.561 118.404 205.635 118.574 205.611 118.77C205.455 120.044 204.527 121.181 203.21 122.074C201.747 123.065 199.807 123.751 197.981 123.992C195.969 124.257 193.919 124.067 192.062 123.523V123.523ZM198.93 103.871C201.07 104.805 204.332 106.984 202.029 109.3C199.319 111.342 195.416 109 193.493 107.941C191.71 107.121 189.707 109.231 191.361 110.19C205.257 117.577 210.896 104.115 200.012 102.773C198.814 102.625 198.369 103.582 198.93 103.871ZM174.028 95.2783C174.265 93.1706 178.736 92.692 179.18 94.7777C179.579 96.646 179.11 98.3623 177.938 100.044C176.818 101.651 174.003 100.902 173.79 99.4384C173.505 97.4768 173.881 96.5895 174.028 95.2783ZM208.061 94.3452C208.684 93.7591 209.584 93.3589 210.662 93.585C214.031 94.2919 213.038 97.7259 211.855 99.3974C211.212 100.305 209.134 100.535 208.195 99.7361C206.664 98.4327 205.931 95.8299 207.877 94.5461C207.93 94.4797 207.989 94.4128 208.061 94.3452ZM177.89 86.0555L178.422 85.9887C180.069 85.7842 182.116 85.5878 183.28 86.5381C183.898 87.042 184.11 87.9786 183.28 88.461C181.82 89.3097 180.205 88.9808 178.455 89.0526C177.013 89.112 175.627 89.2834 174.238 89.5685C171.19 90.194 168.707 91.3357 166.104 92.5894C165.762 92.7539 165.414 92.4402 165.577 92.2109C167.079 90.0977 169.991 88.3618 172.908 87.3037C174.464 86.739 176.168 86.2705 177.89 86.0555ZM204.99 85.1089L205.397 85.1688C209.829 85.834 215.588 87.1629 217.687 90.2889C217.767 90.7309 217.682 90.8256 217.614 90.8875L217.591 90.9081C217.534 90.961 217.489 91.0338 217.222 91.094C217.148 91.0813 217.073 91.0679 216.998 91.0537C216.036 90.8726 215.274 90.6232 214.537 90.3645L213.738 90.0818C212.811 89.7554 211.876 89.4409 210.885 89.2088C208.77 88.7134 206.594 88.3645 204.385 88.1781C203.906 88.1378 203.445 88.0217 203.081 87.8229C202.736 87.6341 202.472 87.3727 202.352 87.0253C202.196 86.5757 202.241 86.2353 202.577 85.8297C202.829 85.5251 203.191 85.314 203.606 85.1928C204.029 85.0692 204.511 85.0401 204.99 85.1089Z" fill="black"/>
<path fill-rule="evenodd" clip-rule="evenodd" d="M204.933 126.654C202.293 124.966 199.334 121.571 195.542 124.257C194.604 125.016 194.224 126.717 192.79 127.051C190.885 127.495 188.998 126.048 188.349 124.936C185.693 118.762 196.672 117.069 202.926 118.066C205.982 118.967 208.233 122.594 208.369 124.487C208.456 125.759 206.957 127.629 204.933 126.654M224.846 117.137C224.821 117.055 224.785 116.981 224.741 116.914C223.574 116.597 222.65 116.92 222.079 117.524C222.098 117.674 222.16 117.826 222.2 117.975C221.759 118.641 221.362 119.466 220.765 120.041C220.647 120.048 220.525 120.039 220.407 120.014C210.511 120.757 215.343 113.322 205.305 111.475C197.546 110.556 183.523 111.609 179.863 117.408C176.976 126.67 162.298 120.216 157.479 115.399C152.337 111.016 149.012 105.659 145.806 100.461C145.129 99.3608 143.015 100.147 143.244 101.203C140.281 105.471 140.38 110.598 139.646 115.273C138.398 124.602 137.181 137.684 149.253 143.38C164.981 156.144 204.255 160.649 222.395 148.92C228.675 139.227 227.901 127.401 224.846 117.137" fill="black"/>
<path fill-rule="evenodd" clip-rule="evenodd" d="M211.904 81.8519C218.331 81.8519 221.998 83.3369 223.342 83.4526L223.383 83.4558C223.941 83.4943 224.443 83.5445 224.969 83.7631C226.904 84.5638 227.219 86.7442 226.09 88.1184C226.011 90.9619 226.359 94.2841 225.762 97.1369C225.025 109.163 219.762 111.192 216.77 111.933C215.269 112.305 213.488 112.453 211.893 112.06C209.172 111.951 206.481 111.036 204.179 109.441C200.973 107.219 198.592 103.804 197.819 99.7503C197.452 97.8183 197.281 95.8073 197.481 93.8433L197.51 93.5727C196.468 93.037 195.26 92.9359 194.016 92.8883C193.421 92.8656 192.835 92.8452 192.265 92.8726C191.709 92.9394 191.159 93.0283 190.607 93.1493C190.005 93.3447 189.436 93.6669 188.911 94.1774L188.875 94.9227C188.776 96.7841 188.548 98.6511 188.198 100.477C187.68 103.172 186.847 105.745 185.074 107.656C184.474 108.62 183.731 109.479 182.83 110.224C179.555 112.933 175.106 113.928 171.022 113.554C162.732 112.793 157.94 105.722 156.836 102.699L156.77 102.516C155.972 100.268 155.336 97.3527 152.815 96.8698L152.279 96.7663C151.129 96.5342 150.068 96.2112 149.393 95.0052C149.098 94.4786 148.946 93.8896 148.908 93.2893C148.515 93.3219 148.122 93.3528 147.73 93.3832C144.606 94.0929 125.87 94.695 124.375 94.695C124.375 94.695 121.5 95.9951 120.286 94.9877C119.445 94.287 119.168 93.3534 119.631 92.2959C120.33 90.7044 123.554 89.7472 124.985 89.4439C124.985 89.4439 148.085 89.6501 149.748 89.3113C150.777 88.1715 152.617 88.3275 154.154 88.1473C155.427 87.172 157.208 86.5188 158.614 86.0815C158.901 85.9648 159.185 85.852 159.461 85.7456C162.039 84.7589 164.719 84.2361 167.44 83.9553C170.246 83.669 173.061 83.7984 175.85 84.2093C177.026 84.3807 178.191 84.6023 179.347 84.8921C181.417 85.1855 183.476 85.6686 185.547 86.2415L185.962 86.3576C188.143 86.972 190.385 87.5035 192.643 87.0868C194.481 86.7501 196.248 85.9896 197.943 85.1677L198.164 85.0601C201.891 83.2316 207.711 81.8519 211.904 81.8519ZM179.123 88.5377C177.748 88.2126 177.16 90.491 178.54 90.8167C179.517 91.0476 180.345 91.5768 180.904 92.4737L180.963 92.5711C181.713 93.8546 183.611 92.67 182.855 91.378C182.005 89.9245 180.684 88.9063 179.123 88.5377ZM219.396 87.125C218.911 86.7582 218.178 87.0306 217.897 87.549C217.587 88.1199 217.79 88.7558 218.244 89.1293L218.29 89.1658C218.706 89.4813 219.112 90.0466 219.163 90.6257L219.167 90.6983C219.222 92.2142 221.414 92.2218 221.36 90.6983C221.306 89.2078 220.503 87.9624 219.396 87.125Z" fill="black"/>
</svg>
